<svg xmlns="http://www.w3.org/2000/svg" xmlns:xlink="http://www.w3.org/1999/xlink" width="46.091" height="46.103" viewBox="0 0 46.091 46.103"><defs><linearGradient id="linear-gradient" x1=".5" x2=".5" y2="1" gradientUnits="objectBoundingBox"><stop offset="0" stop-color="#615cfd"/><stop offset="1" stop-color="#d465ef"/></linearGradient></defs><g id="search" transform="translate(0)"><path id="Path_269" fill="#334a5e" d="M315.6,312.588l-3.071,3.071-3.167-3.167,3.071-3.071Z" data-name="Path 269" transform="translate(-280.949 -281.001)"/><path id="Path_270" fill="#ffd15c" d="M332.315,332.38h0a4.692,4.692,0,0,1-6.622,0l-9.021-9.021,6.622-6.622,9.021,9.021A4.692,4.692,0,0,1,332.315,332.38Z" data-name="Path 270" transform="translate(-287.591 -287.644)"/><path id="Path_271" fill="url(#linear-gradient)" d="M31.063,5.291a18.16,18.16,0,0,0-25.625,0,17.958,17.958,0,0,0-.1,25.529A18.12,18.12,0,0,0,31.063,5.291Z" data-name="Path 271" transform="translate(-0.064 0)"/><path id="Path_272" fill="#f2f2f2" d="M67.09,67.512a14.221,14.221,0,0,1-20.058-.1,14.019,14.019,0,0,1,.1-19.962A14.15,14.15,0,1,1,67.09,67.512Z" data-name="Path 272" transform="translate(-38.969 -39.38)"/><path id="Path_273" fill="#84dbff" d="M103.1,103.516a10.247,10.247,0,1,1,0-14.492A10.2,10.2,0,0,1,103.1,103.516Z" data-name="Path 273" transform="translate(-77.758 -78.168)"/><path id="Path_274" fill="#54c0eb" d="M131.611,131.676a7.126,7.126,0,1,1,0-10.077A7.125,7.125,0,0,1,131.611,131.676Z" data-name="Path 274" transform="translate(-108.481 -108.535)"/><g id="Group_77" data-name="Group 77" transform="translate(10.871 13.15)"><ellipse id="Ellipse_18" cx="1.536" cy="1.536" fill="#fff" data-name="Ellipse 18" rx="1.536" ry="1.536"/><ellipse id="Ellipse_19" cx=".768" cy=".768" fill="#fff" data-name="Ellipse 19" rx=".768" ry=".768" transform="translate(3.051 2.244)"/></g><path id="Path_275" fill="#f8b64c" d="M322.344,316.735l-6.718,6.526,2.783,2.783,6.622-6.622Z" data-name="Path 275" transform="translate(-286.642 -287.643)"/></g></svg>